<?xml version="1.0" encoding="UTF-8" standalone="no"?>
<!-- Created with Inkscape (http://www.inkscape.org/) -->

<svg
   width="64.879532mm"
   height="75.110931mm"
   viewBox="0 0 64.879533 75.110931"
   version="1.1"
   id="svg1"
   sodipodi:docname="deal-q-bitmap.svg"
   inkscape:dataloss="true"
   xml:space="preserve"
   inkscape:export-filename="deal-q-bitmap-buildings.svg"
   inkscape:export-xdpi="96"
   inkscape:export-ydpi="96"
   xmlns:inkscape="http://www.inkscape.org/namespaces/inkscape"
   xmlns:sodipodi="http://sodipodi.sourceforge.net/DTD/sodipodi-0.dtd"
   xmlns="http://www.w3.org/2000/svg"
   xmlns:svg="http://www.w3.org/2000/svg"><sodipodi:namedview
     id="namedview1"
     pagecolor="#ffffff"
     bordercolor="#000000"
     borderopacity="0.25"
     inkscape:showpageshadow="2"
     inkscape:pageopacity="0.0"
     inkscape:pagecheckerboard="0"
     inkscape:deskcolor="#d1d1d1"
     inkscape:document-units="mm"
     inkscape:zoom="0.75312647"
     inkscape:cx="244.31487"
     inkscape:cy="348.54704"
     inkscape:window-width="1728"
     inkscape:window-height="1052"
     inkscape:window-x="0"
     inkscape:window-y="65"
     inkscape:window-maximized="0"
     inkscape:current-layer="layer1"><inkscape:page
       x="0"
       y="-1.0955987e-23"
       width="64.879532"
       height="75.110924"
       id="page1"
       margin="0"
       bleed="0" /></sodipodi:namedview><defs
     id="defs1"><clipPath
       clipPathUnits="userSpaceOnUse"
       id="clipPath9"><rect
         style="display:inline;fill:none;stroke-width:0.264583"
         id="rect10"
         width="63.331451"
         height="55.338154"
         x="78.465866"
         y="131.31224" /></clipPath><clipPath
       clipPathUnits="userSpaceOnUse"
       id="clipPath10"><rect
         style="display:inline;fill:none;stroke-width:0.264583"
         id="rect11"
         width="63.331451"
         height="55.338154"
         x="78.465866"
         y="131.31224" /></clipPath><clipPath
       clipPathUnits="userSpaceOnUse"
       id="clipPath11"><rect
         style="display:inline;fill:none;stroke-width:0.264583"
         id="rect12"
         width="63.331451"
         height="55.338154"
         x="78.465866"
         y="131.31224" /></clipPath><clipPath
       clipPathUnits="userSpaceOnUse"
       id="clipPath12"><rect
         style="display:inline;fill:none;stroke-width:0.264583"
         id="rect13"
         width="63.331451"
         height="55.338154"
         x="78.465866"
         y="131.31224" /></clipPath><clipPath
       clipPathUnits="userSpaceOnUse"
       id="clipPath13"><rect
         style="display:inline;fill:none;stroke-width:0.264583"
         id="rect14"
         width="63.331451"
         height="55.338154"
         x="78.465866"
         y="131.31224" /></clipPath><clipPath
       clipPathUnits="userSpaceOnUse"
       id="clipPath15"><rect
         style="display:inline;fill:none;stroke-width:0.264583"
         id="rect17"
         width="63.331451"
         height="55.338154"
         x="78.465866"
         y="131.31224" /></clipPath><clipPath
       clipPathUnits="userSpaceOnUse"
       id="clipPath18"><rect
         style="display:inline;fill:none;stroke-width:0.264583"
         id="rect19"
         width="63.331451"
         height="55.338154"
         x="76.364059"
         y="90.070534" /></clipPath></defs><g
     inkscape:label="Layer 1"
     inkscape:groupmode="layer"
     id="layer1"
     transform="translate(-78.465866,-111.53947)"
     style="display:inline"><path
       style="fill:#000000"
       d="M -18.250027,142.875 V 29.62088 H 102.92292 224.09586 V 142.875 256.12912 H 102.92292 -18.250027 Z m 231.289417,-2.54 V 35.597351 H 105.91115 -1.2170853 V 140.335 245.07265 H 105.91115 213.03939 Z m -52.3554,42.52288 -1.63279,-1.85242 -1.31944,0.49445 c -3.4739,1.30182 -8.15651,1.39189 -11.62455,0.22359 -10.37689,-3.49572 -13.7141,-16.76766 -6.35853,-25.28758 2.39382,-2.77276 5.29847,-4.2665 9.56706,-4.91994 3.27212,-0.50091 5.88329,-0.0392 9.15922,1.61944 8.73241,4.42139 11.42504,14.90674 5.97166,23.25421 -0.51452,0.78757 -0.50978,0.8025 0.64033,2.01621 0.63728,0.67251 1.40028,1.29944 1.69556,1.39315 0.29528,0.0937 0.53688,0.3452 0.53688,0.55884 0,0.37642 -4.38178,4.35246 -4.79662,4.35246 -0.11329,0 -0.94075,-0.83358 -1.83878,-1.85241 z m -6.14096,-6.54372 c 0.3707,-0.19289 0.72266,-0.39235 0.78214,-0.44326 0.0595,-0.0509 -0.36645,-0.67172 -0.94649,-1.37959 -0.58005,-0.70786 -1.09935,-1.42686 -1.15402,-1.59778 -0.0547,-0.17091 0.83156,-1.10147 1.96939,-2.06792 l 2.06879,-1.75716 1.24974,1.44058 c 0.68735,0.79231 1.38713,1.35566 1.55505,1.25188 0.4855,-0.30006 0.97646,-2.68695 0.97646,-4.74725 0,-1.53377 -0.19006,-2.28867 -1.00119,-3.9765 -3.66602,-7.62843 -13.44094,-7.75027 -17.12834,-0.2135 -0.67848,1.38676 -0.79596,2.01492 -0.79596,4.25605 0,2.25324 0.11437,2.85779 0.79983,4.22811 1.3145,2.62781 2.88157,4.03783 5.61764,5.05463 1.7418,0.64731 4.71605,0.62339 6.00696,-0.0483 z m -71.342467,5.8843 c -1.954798,-0.48308 -3.035485,-1.08136 -4.430072,-2.45254 -1.364591,-1.34168 -2.139455,-2.78227 -2.743116,-5.09988 -0.591483,-2.27086 -0.564236,-3.2385 0.156939,-5.57339 0.801473,-2.59487 2.409918,-4.59393 4.655506,-5.78612 3.473062,-1.84386 6.600409,-1.86181 10.181074,-0.0584 3.130364,1.57658 4.751895,4.34266 5.086061,8.67604 l 0.181014,2.34733 h -7.365468 c -6.270125,0 -7.365467,0.0651 -7.365467,0.43784 0,0.67918 1.824272,2.59398 2.899263,3.04314 2.003996,0.83733 4.840899,0.33824 6.535673,-1.14979 0.950959,-0.83495 1.120601,-0.8863 1.773548,-0.53686 0.890743,0.47672 2.537398,2.06114 2.537398,2.4415 0,0.41521 -1.770792,1.98204 -3.137647,2.77625 -2.106129,1.22377 -6.107351,1.64105 -8.964706,0.93491 z m 7.321177,-12.77443 c 0,-0.89499 -2.112726,-2.82489 -3.333891,-3.0454 -2.211634,-0.39937 -4.624049,0.89048 -5.301818,2.83473 l -0.297908,0.85458 h 4.466808 c 4.374581,0 4.466809,-0.0133 4.466809,-0.64391 z m 13.51333,12.77472 c -2.83713,-0.92901 -4.548624,-3.12044 -4.548624,-5.82416 0,-4.43085 3.140294,-6.30665 10.558004,-6.30665 2.7916,0 2.88988,-0.0694 2.29886,-1.62394 -0.73657,-1.9373 -4.13175,-2.58165 -6.62317,-1.25695 -0.72925,0.38775 -1.60487,0.87921 -1.94584,1.09215 -0.56084,0.35025 -0.73067,0.26534 -1.78154,-0.89064 -1.72706,-1.89981 -1.79871,-2.10183 -0.97682,-2.75417 3.7404,-2.96881 9.45874,-3.73455 13.3201,-1.78371 1.94974,0.98506 2.45574,1.46759 3.33795,3.18314 0.56817,1.10487 0.61788,1.76046 0.65711,8.66589 l 0.0424,7.47058 -2.57356,0.0864 c -2.50759,0.0842 -2.58086,0.0672 -2.8587,-0.66361 l -0.28515,-0.74999 -1.4611,0.75805 c -1.82124,0.94489 -5.23041,1.22944 -7.15995,0.59762 z m 6.80395,-4.4734 c 0.80021,-0.36732 1.38767,-1.35921 1.68475,-2.8446 l 0.18562,-0.9281 h -2.53276 c -3.66834,0 -5.01254,0.62049 -5.01254,2.31383 0,1.84335 3.10078,2.64048 5.67493,1.45887 z m -62.912079,4.22083 c -0.0787,-0.20544 -0.108102,-7.02983 -0.06533,-15.1653 l 0.07777,-14.79176 4.480497,-0.0831 c 6.627499,-0.12294 9.277885,0.24858 12.388503,1.73656 3.682385,1.76149 5.775683,3.95834 7.108975,7.46067 0.891327,2.34136 1.016479,3.08482 1.016479,6.03834 0,4.36175 -1.311711,7.77136 -4.124,10.71975 -2.069486,2.16964 -5.117963,3.74848 -8.021042,4.1542 -3.189374,0.44573 -12.684141,0.39453 -12.861857,-0.0694 z m 14.227952,-6.29004 c 4.657101,-2.05812 6.27578,-9.93763 2.976973,-14.4915 -0.496099,-0.68485 -1.417453,-1.58629 -2.047452,-2.0032 -1.571253,-1.03981 -5.079913,-1.74346 -7.450322,-1.49413 l -1.867647,0.19644 v 9.27581 9.27582 l 3.660588,-0.14379 c 2.403751,-0.0944 4.027029,-0.30573 4.72786,-0.61545 z m 62.064977,-7.29568 c -0.0443,-7.68942 -0.0132,-14.51864 0.0689,-15.17605 l 0.14941,-1.19529 2.91627,-0.0856 2.91628,-0.0856 -0.0774,15.17615 -0.0774,15.17614 -2.90775,0.0855 -2.90775,0.0855 z m 10.12932,-25.08703 c -0.10957,-0.10957 -0.20013,-8.07695 -0.20126,-17.70529 l -0.002,-17.50608 -0.96913,-0.62103 c -0.53303,-0.34157 -1.54064,-0.98221 -2.23914,-1.42365 -1.12653,-0.71196 -1.26948,-0.92873 -1.26542,-1.91897 0.003,-0.614 0.1085,-1.2799 0.23552,-1.47979 0.2768,-0.43562 0.83408,-0.17334 4.44886,2.09388 l 2.48182,1.55662 4.9e-4,18.4175 5e-4,18.4175 -0.67236,0.18018 c -0.88914,0.23828 -1.57277,0.2342 -1.81784,-0.0109 z M 78.568798,130.3468 v -12.82702 l 1.171361,-0.69474 c 0.644248,-0.38211 2.431837,-1.46795 3.972421,-2.41298 1.540584,-0.94503 2.954361,-1.71824 3.141726,-1.71824 0.187365,0 1.021952,0.42351 1.854637,0.94114 l 1.513973,0.94114 v 14.29886 14.29886 h -2.091765 -2.091764 v -13.43263 -13.43262 l -2.315883,1.43703 -2.315882,1.43703 -0.0781,11.9956 -0.0781,11.99559 H 79.910106 78.56879 Z m 18.527059,-3.68871 v -16.51573 l 1.718236,-0.93799 1.718237,-0.938 4.18353,2.02027 4.18353,2.02027 0.0801,-6.61149 0.0801,-6.61149 1.30029,-0.88976 c 0.71516,-0.489367 3.0181,-2.088789 5.11766,-3.554269 2.09955,-1.46548 3.9719,-2.66451 4.16077,-2.66451 0.18886,0 1.51418,0.862318 2.94514,1.916262 l 2.60174,1.916262 v 23.682955 23.68295 h -2.68941 -2.68941 v -24.05529 c 0,-13.60004 -0.11398,-24.055296 -0.26224,-24.055296 -0.14423,0 -0.42963,0.201706 -0.63423,0.448236 -0.20461,0.246529 -0.47929,0.448235 -0.61042,0.448235 -0.13112,0 -1.33509,0.773206 -2.67548,1.718235 -1.34039,0.94503 -2.76281,1.919942 -3.16094,2.166471 l -0.72386,0.448239 -5.4e-4,21.44058 -5.3e-4,21.44059 h -1.34172 -1.34172 l -0.0777,-13.82058 -0.0777,-13.82059 -3.43647,-1.6831 c -1.89006,-0.9257 -3.54174,-1.62101 -3.67039,-1.54513 -0.12866,0.0759 -0.17467,6.68274 -0.10225,14.68192 0.0724,7.99917 0.06,14.91375 -0.0276,15.36572 -0.15651,0.80779 -0.19668,0.82176 -2.363039,0.82176 h -2.203824 z m 0.594847,-25.77516 c -0.157758,-0.41494 -0.773784,-1.041737 -1.368947,-1.392892 l -1.082115,-0.638463 1.052149,-0.922994 c 0.578683,-0.507647 1.202768,-1.225552 1.386857,-1.595347 0.465919,-0.935927 0.84046,-0.84124 1.411822,0.356921 0.275068,0.576823 0.864052,1.183868 1.33987,1.380959 1.0493,0.434632 1.09696,1.048638 0.10081,1.298656 -0.41153,0.103287 -1.050267,0.65408 -1.419412,1.22399 -0.801823,1.2379 -1.041764,1.28672 -1.421034,0.28917 z"
       id="path16"
       clip-path="url(#clipPath18)"
       transform="translate(3.6498832,21.468935)" /><rect
       style="fill:none;stroke-width:0.264583"
       id="rect16"
       width="179.56339"
       height="167.05026"
       x="21.897974"
       y="55.683418"
       clip-path="url(#clipPath15)" /><rect
       style="fill:none;stroke-width:0.264583"
       id="rect4"
       width="63.236385"
       height="54.102238"
       x="80.121933"
       y="132.24588"
       clip-path="url(#clipPath13)" /><rect
       style="fill:none;stroke-width:0.264583"
       id="rect5"
       width="71.466415"
       height="62.257854"
       x="69.4617"
       y="123.80909"
       clip-path="url(#clipPath12)" /><rect
       style="fill:none;stroke-width:0.264583"
       id="rect6"
       width="85.279251"
       height="71.266228"
       x="65.05761"
       y="120.40593"
       clip-path="url(#clipPath11)" /><rect
       style="fill:none;stroke-width:0.264583"
       id="rect7"
       width="77.872368"
       height="58.254135"
       x="62.255005"
       y="127.61263"
       clip-path="url(#clipPath10)" /><rect
       style="fill:none;stroke-width:0.264583"
       id="rect8"
       width="79.073486"
       height="60.85656"
       x="61.254074"
       y="125.61076"
       clip-path="url(#clipPath9)" /></g></svg>
